# xmcd
#
# Track frame offsets:
#	150
#	7365
#	30550
#	54450
#	78825
#	103442
#	125800
#	150150
#	174700
#	196050
#	221737
#
# Disc length: 3272 seconds
#
# Revision: 4
# Processed by: cddbd v1.5PL3 Copyright (c) Steve Scherf et al.
# Submitted via: CDex 1.50Beta5
#
DISCID=940cc60b
DTITLE=鈴木雅之 - CARNIVAL Disc 1
DYEAR=1997
DGENRE=Pop
TTITLE0=CARNIVAL・PRELUDE
TTITLE1=きみがきみであるために
TTITLE2=決断
TTITLE3=路
TTITLE4=愛苦
TTITLE5=CARNIVAL
TTITLE6=くちづけ
TTITLE7=白夜
TTITLE8=好きで好きでたまらない
TTITLE9=風の街
TTITLE10=10年
EXTD=
EXTT0=
EXTT1=
EXTT2=
EXTT3=
EXTT4=
EXTT5=
EXTT6=
EXTT7=
EXTT8=
EXTT9=
EXTT10=
PLAYORDER=
